<svg width="19" height="19" viewBox="0 0 19 19" fill="none" xmlns="http://www.w3.org/2000/svg">
<path d="M15.833 1.58334H3.16634C2.37467 1.58334 1.58301 2.29584 1.58301 3.16668V5.54959C1.58301 6.11959 1.92342 6.61043 2.37467 6.88751V15.8333C2.37467 16.7042 3.24551 17.4167 3.95801 17.4167H15.0413C15.7538 17.4167 16.6247 16.7042 16.6247 15.8333V6.88751C17.0759 6.61043 17.4163 6.11959 17.4163 5.54959V3.16668C17.4163 2.29584 16.6247 1.58334 15.833 1.58334ZM15.0413 15.8333H3.95801V7.12501H15.0413V15.8333ZM15.833 5.54168H3.16634V3.16668H15.833V5.54168Z" fill="#72BD61"/>
<path d="M11.875 9.5H7.125V11.0833H11.875V9.5Z" fill="#72BD61"/>
</svg>
