<svg width="24" height="24" viewBox="0 0 24 24" fill="none" xmlns="http://www.w3.org/2000/svg">
<path fill-rule="evenodd" clip-rule="evenodd" d="M12 4C16.4181 4 20 7.58187 20 12C20 16.4181 16.4181 20 12 20C7.58187 20 4 16.4181 4 12C4 7.58187 7.58187 4 12 4V4Z" stroke="#7CBF46" stroke-width="1.2" stroke-linecap="round" stroke-linejoin="round"/>
<path fill-rule="evenodd" clip-rule="evenodd" d="M12.0003 15.7333C12.5896 15.7333 13.0669 16.2107 13.0669 16.8C13.0669 17.3893 12.5896 17.8667 12.0003 17.8667C11.4109 17.8667 10.9336 17.3893 10.9336 16.8C10.9336 16.2107 11.4109 15.7333 12.0003 15.7333V15.7333Z" stroke="#7CBF46" stroke-width="1.2" stroke-linecap="round" stroke-linejoin="round"/>
<path d="M9.54688 8.26667C9.97354 7.30667 10.8802 6.66667 12.0002 6.66667C13.4935 6.66667 14.6669 7.84 14.6669 9.33333C14.6669 10.8267 13.4935 12 12.0002 12V13.6" stroke="#7CBF46" stroke-width="1.2" stroke-linecap="round" stroke-linejoin="round"/>
</svg>
