<?xml version="1.0" standalone="no"?>
<!DOCTYPE svg PUBLIC "-//W3C//DTD SVG 20010904//EN"
 "http://www.w3.org/TR/2001/REC-SVG-20010904/DTD/svg10.dtd">
<svg version="1.0" xmlns="http://www.w3.org/2000/svg"
 width="512.000000pt" height="512.000000pt" viewBox="0 0 512.000000 512.000000"
 preserveAspectRatio="xMidYMid meet">

<g transform="translate(0.000000,512.000000) scale(0.100000,-0.100000)"
fill="#000000" stroke="none">
<path d="M546 4869 c-62 -15 -153 -68 -197 -116 -22 -24 -55 -74 -72 -111
l-32 -67 0 -2016 0 -2015 37 -76 c45 -91 103 -147 196 -191 l67 -32 1215 0
1215 0 67 32 c93 44 151 100 196 191 l37 76 3 219 c4 257 -1 286 -65 357 -95
106 -236 108 -338 5 -66 -65 -75 -99 -75 -269 l0 -136 -1040 0 -1040 0 0 1840
0 1840 1040 0 1040 0 0 -136 c0 -170 9 -204 75 -269 102 -103 243 -101 338 5
64 71 69 100 65 356 l-3 219 -32 67 c-44 93 -100 151 -191 196 l-76 37 -1195
2 c-701 1 -1212 -3 -1235 -8z"/>
<path d="M3635 3681 c-83 -39 -136 -123 -136 -216 0 -93 13 -112 299 -397
l267 -268 -1329 0 c-1014 0 -1338 -3 -1370 -12 -86 -26 -166 -136 -166 -228 0
-92 80 -202 166 -228 32 -9 356 -12 1370 -12 l1329 0 -267 -267 c-286 -286
-299 -305 -299 -398 0 -93 53 -177 136 -216 53 -25 147 -25 200 0 27 13 199
179 531 512 521 524 514 516 514 609 0 93 7 85 -514 609 -332 333 -504 499
-531 512 -53 25 -147 25 -200 0z"/>
</g>
</svg>
