<svg width="20" height="20" viewBox="0 0 20 20" fill="none" xmlns="http://www.w3.org/2000/svg">
<path d="M9.99935 1.66666C6.77435 1.66666 4.16602 4.27499 4.16602 7.49999C4.16602 11.875 9.99935 18.3333 9.99935 18.3333C9.99935 18.3333 15.8327 11.875 15.8327 7.49999C15.8327 4.27499 13.2243 1.66666 9.99935 1.66666ZM5.83268 7.49999C5.83268 5.19999 7.69935 3.33332 9.99935 3.33332C12.2993 3.33332 14.166 5.19999 14.166 7.49999C14.166 9.89999 11.766 13.4917 9.99935 15.7333C8.26602 13.5083 5.83268 9.87499 5.83268 7.49999Z" fill="black"/>
<path d="M9.99935 9.58332C11.1499 9.58332 12.0827 8.65058 12.0827 7.49999C12.0827 6.3494 11.1499 5.41666 9.99935 5.41666C8.84876 5.41666 7.91602 6.3494 7.91602 7.49999C7.91602 8.65058 8.84876 9.58332 9.99935 9.58332Z" fill="black"/>
</svg>
