<svg width="21" height="21" viewBox="0 0 21 21" fill="none" xmlns="http://www.w3.org/2000/svg">
<path d="M10.5 5.25C11.4625 5.25 12.25 6.0375 12.25 7C12.25 7.9625 11.4625 8.75 10.5 8.75C9.5375 8.75 8.75 7.9625 8.75 7C8.75 6.0375 9.5375 5.25 10.5 5.25ZM10.5 14C12.8625 14 15.575 15.1288 15.75 15.75H5.25C5.45125 15.12 8.14625 14 10.5 14ZM10.5 3.5C8.56625 3.5 7 5.06625 7 7C7 8.93375 8.56625 10.5 10.5 10.5C12.4338 10.5 14 8.93375 14 7C14 5.06625 12.4338 3.5 10.5 3.5ZM10.5 12.25C8.16375 12.25 3.5 13.4225 3.5 15.75V17.5H17.5V15.75C17.5 13.4225 12.8363 12.25 10.5 12.25Z" fill="black"/>
</svg>
