<svg width="19" height="19" viewBox="0 0 19 19" fill="none" xmlns="http://www.w3.org/2000/svg">
<path d="M15.8337 6.33332H13.4587V3.16666H2.37533C1.50449 3.16666 0.791992 3.87916 0.791992 4.74999V13.4583H2.37533C2.37533 14.7725 3.43616 15.8333 4.75033 15.8333C6.06449 15.8333 7.12533 14.7725 7.12533 13.4583H11.8753C11.8753 14.7725 12.9362 15.8333 14.2503 15.8333C15.5645 15.8333 16.6253 14.7725 16.6253 13.4583H18.2087V9.49999L15.8337 6.33332ZM15.4378 7.52082L16.9895 9.49999H13.4587V7.52082H15.4378ZM4.75033 14.25C4.31491 14.25 3.95866 13.8937 3.95866 13.4583C3.95866 13.0229 4.31491 12.6667 4.75033 12.6667C5.18574 12.6667 5.54199 13.0229 5.54199 13.4583C5.54199 13.8937 5.18574 14.25 4.75033 14.25ZM6.50783 11.875C6.07241 11.3921 5.45491 11.0833 4.75033 11.0833C4.04574 11.0833 3.42824 11.3921 2.99283 11.875H2.37533V4.74999H11.8753V11.875H6.50783ZM14.2503 14.25C13.8149 14.25 13.4587 13.8937 13.4587 13.4583C13.4587 13.0229 13.8149 12.6667 14.2503 12.6667C14.6857 12.6667 15.042 13.0229 15.042 13.4583C15.042 13.8937 14.6857 14.25 14.2503 14.25Z" fill="#72BD61"/>
</svg>
